<?xml version="1.0" encoding="utf-8"?>
<!-- Generator: Adobe Illustrator 25.1.0, SVG Export Plug-In . SVG Version: 6.00 Build 0)  -->
<svg version="1.1" id="Layer_1" xmlns="http://www.w3.org/2000/svg" xmlns:xlink="http://www.w3.org/1999/xlink" x="0px" y="0px"
	 viewBox="0 0 100 100" style="enable-background:new 0 0 100 100;" xml:space="preserve">
<style type="text/css">
	.st0{fill:#5DA867;stroke:#6EFF81;stroke-miterlimit:10;}
	.st1{fill:#6EFF81; }
  .st2{fill:#6EFF81;}
</style>
  <g>
	<circle class="st0" cx="52.37" cy="53.09" r="39.63"/>
	<circle class="st1" cx="42.04" cy="42.83" r="4.2"/>
	<circle class="st1" cx="62.63" cy="42.83" r="4.2"/>
</g>
<g>
	<path class="st2" d="M53.03,80.11c-2.74,0-5.57-0.31-8.26-0.92c-6.06-1.38-11.14-4.2-14.71-8.18c-3.65-4.07-5.73-9.28-6.19-15.49
		c-0.06-0.85,0.37-1.61,0.95-1.7c0.59-0.08,1.12,0.52,1.18,1.37c0.39,5.34,2.2,9.84,5.37,13.37c7.6,8.48,20.87,9.33,27.93,7.83
		c9.59-2.03,16.87-10.34,19.47-22.24c0.18-0.81,0.78-1.27,1.34-1.01c0.57,0.26,0.88,1.12,0.7,1.93
		c-2.85,13.05-10.78,22.16-21.2,24.37C57.57,79.9,55.33,80.11,53.03,80.11z"/>
</g>
<g>
</g>
<g>
</g>
<g>
</g>
<g>
</g>
<g>
</g>
<g>
</g>
<g>
</g>
<g>
</g>
<g>
</g>
<g>
</g>
<g>
</g>
<g>
</g>
<g>
</g>
<g>
</g>
<g>
</g>
</svg>