<?xml version="1.0" encoding="utf-8"?>
<!-- Generator: Adobe Illustrator 25.1.0, SVG Export Plug-In . SVG Version: 6.00 Build 0)  -->
<svg version="1.1" id="Layer_1" xmlns="http://www.w3.org/2000/svg" xmlns:xlink="http://www.w3.org/1999/xlink" x="0px" y="0px"
	 viewBox="0 0 100 100" style="enable-background:new 0 0 100 100;" xml:space="preserve">
<style type="text/css">
	.st0{fill:#AF2828;stroke:#FF6E6E;stroke-miterlimit:10; }
	.st1{fill:#FF6E6E; }
</style>
<g>
	<circle class="st0" cx="52.37" cy="53.09" r="39.63" />
	<circle class="st1" cx="42.04" cy="42.83" r="4.2" />
	<circle class="st1" cx="62.63" cy="42.83" r="4.2" />
</g>
<g>
	<path class="st1" d="M51.11,63c2.37,0,4.8,0.19,7.12,0.58c5.22,0.87,9.6,2.64,12.67,5.15c3.14,2.56,4.94,5.84,5.33,9.74
		c0.05,0.53-0.31,1.01-0.82,1.07c-0.51,0.05-0.96-0.33-1.02-0.86c-0.34-3.36-1.89-6.19-4.62-8.41c-6.55-5.33-17.98-5.87-24.07-4.93
		c-8.26,1.28-14.53,6.51-16.77,13.99c-0.15,0.51-0.67,0.8-1.16,0.64c-0.49-0.16-0.76-0.71-0.6-1.22
		c2.46-8.21,9.29-13.94,18.27-15.33C47.2,63.14,49.13,63,51.11,63z"/>
</g>
<g>
</g>
<g>
</g>
<g>
</g>
<g>
</g>
<g>
</g>
<g>
</g>
<g>
</g>
<g>
</g>
<g>
</g>
<g>
</g>
<g>
</g>
<g>
</g>
<g>
</g>
<g>
</g>
<g>
</g>
</svg>
